<svg id="Capa_1" enable-background="new 0 0 512 512" height="512" viewBox="0 0 512 512" width="512" xmlns="http://www.w3.org/2000/svg"><g><g><path d="m512 405.988c-17.701 10.5-36.017 18.773-54.946 24.809-25.662 8.2-52.448 12.311-80.359 12.321-35.798-111.006-66.633-223.385-92.503-337.107 6.931-4.111 13.955-7.888 21.083-11.302 35.715-17.212 73.802-25.818 114.232-25.829 35.788 111.007 66.623 223.376 92.493 337.108z" fill="#78c2a4"/><path d="m457.054 430.797c-25.662 8.2-52.448 12.311-80.359 12.321-35.798-111.006-66.633-223.385-92.503-337.107 6.931-4.111 13.955-7.888 21.083-11.302 6.556 81.722 50.159 285.189 94.449 315.638 20.21 13.894 40.857 19.004 57.33 20.45z" fill="#5aa687"/><g><path d="m419.91 230.454c-17.378 6.691-35.247 11.593-53.607 14.709-8.921 1.514-17.609-3.669-20.508-12.241-9.859-29.155-17.988-58.785-24.39-88.889-1.882-8.851 2.945-17.742 11.389-20.993 17.378-6.691 35.247-11.593 53.607-14.709 8.921-1.514 17.609 3.669 20.508 12.241 9.859 29.155 17.989 58.785 24.39 88.889 1.882 8.851-2.945 17.742-11.389 20.993z" fill="#f7f9f9"/><path d="m363.142 253.236c-11.08 0-21.078-6.983-24.74-17.814-9.91-29.306-18.197-59.507-24.631-89.766-2.694-12.669 4.127-25.244 16.22-29.899 17.78-6.846 36.32-11.933 55.105-15.12 12.778-2.165 25.059 5.166 29.207 17.436 9.908 29.299 18.195 59.501 24.63 89.765 2.694 12.67-4.127 25.244-16.22 29.9-17.78 6.846-36.32 11.933-55.105 15.12-1.499.254-2.992.378-4.466.378zm26.372-137.362c-.597 0-1.2.05-1.807.153-17.763 3.014-35.295 7.824-52.109 14.297-4.889 1.883-7.647 6.965-6.559 12.085 6.309 29.668 14.434 59.279 24.149 88.013 1.678 4.958 6.633 7.922 11.808 7.046 17.763-3.014 35.295-7.824 52.109-14.297 4.889-1.883 7.647-6.965 6.559-12.086-6.31-29.673-14.435-59.285-24.148-88.012-1.48-4.377-5.522-7.199-10.002-7.199zm30.396 114.58h.01z" fill="#5aa687"/><path d="m355.979 209.674c-3.616 0-6.861-2.527-7.631-6.206-.883-4.219 1.82-8.356 6.04-9.239 16.794-3.517 33.54-8.112 49.771-13.657 4.08-1.392 8.516.783 9.91 4.863 1.393 4.079-.785 8.515-4.863 9.909-16.834 5.751-34.201 10.516-51.619 14.164-.539.111-1.078.166-1.608.166z" fill="#dae4ea"/><path d="m346.016 173.34c-3.246 0-6.277-2.041-7.385-5.285-1.393-4.079.785-8.515 4.864-9.909 16.839-5.751 34.206-10.516 51.619-14.163 4.209-.88 8.356 1.82 9.239 6.039s-1.82 8.356-6.04 9.239c-16.79 3.516-33.536 8.111-49.773 13.657-.836.287-1.686.422-2.524.422z" fill="#dae4ea"/><g><circle cx="428.541" cy="366.95" fill="#454545" r="33.133"/><path d="m428.541 407.888c-22.573 0-40.937-18.364-40.937-40.938 0-22.573 18.364-40.938 40.937-40.938s40.938 18.364 40.938 40.938-18.365 40.938-40.938 40.938zm0-66.265c-13.965 0-25.327 11.362-25.327 25.328s11.362 25.328 25.327 25.328c13.966 0 25.328-11.362 25.328-25.328s-11.362-25.328-25.328-25.328z" fill="#5aa687"/></g></g></g><path d="m284.477 83.937c-46.769-12.817-93.539-12.817-140.308 0-44.177 29.286-15.523 40.541-62.292 53.359-5.145 116.523-14.823 156.435-9.679 272.958 46.769 12.818 25.201 11.43 71.971 23.251 46.769 12.818 93.539 12.818 140.308 0 5.145-116.523 5.145-233.045 0-349.568z" fill="#e490d0"/><path d="m217.112 443.082c-24.309.281-48.629-2.914-72.939-9.574v-349.574c8.315-2.279 16.64-4.152 24.955-5.609-14.933 64.249-29.461 253.897 1.686 328.646 7.181 17.234 24.268 28.691 46.298 36.111z" fill="#df73c1"/><path d="m144.174 83.934v349.573c-22.468 6.15-44.914 9.345-67.371 9.574-24.31.281-48.629-2.914-72.939-9.574-5.151-116.521-5.151-233.052 0-349.573 8.315-2.279 16.64-4.152 24.955-5.609 38.451-6.795 76.892-4.922 115.355 5.609z" fill="#90d8f9"/><path d="m76.802 443.082c-24.31.281-48.629-2.914-72.939-9.574-5.151-116.521-5.151-233.052 0-349.573 8.315-2.279 16.64-4.152 24.955-5.609-14.933 64.249-29.461 253.897 1.686 328.646 7.18 17.233 24.268 28.69 46.298 36.11z" fill="#6bbef6"/><g><path d="m99.993 239.859c-18.529 1.854-37.059 1.854-55.588 0-9.004-.901-16.011-8.198-16.538-17.231-1.793-30.725-1.793-61.45 0-92.174.527-9.033 7.534-16.33 16.538-17.231 18.529-1.854 37.059-1.854 55.588 0 9.003.901 16.011 8.198 16.538 17.231 1.793 30.725 1.793 61.45 0 92.174-.528 9.033-7.535 16.33-16.538 17.231z" fill="#f7f9f9"/><path d="m72.197 203.985c-8.438 0-16.875-.273-25.253-.82-4.302-.28-7.561-3.995-7.28-8.296.282-4.302 4.037-7.572 8.297-7.28 16.081 1.049 32.39 1.049 48.474 0 4.285-.298 8.015 2.979 8.297 7.28.28 4.301-2.979 8.016-7.28 8.296-8.381.547-16.818.82-25.255.82z" fill="#dae4ea"/><path d="m47.444 165.505c-4.078 0-7.511-3.169-7.78-7.297-.28-4.301 2.979-8.016 7.28-8.296 16.756-1.093 33.748-1.093 50.506 0 4.302.28 7.561 3.995 7.28 8.296-.28 4.302-4.02 7.574-8.297 7.28-16.083-1.049-32.392-1.049-48.474 0-.171.012-.344.017-.515.017z" fill="#dae4ea"/><circle cx="72.199" cy="373.774" fill="#454545" r="33.133"/><g fill="#6bbef6"><path d="m72.199 414.711c-22.573 0-40.938-18.364-40.938-40.937s18.365-40.938 40.938-40.938 40.937 18.364 40.937 40.938c0 22.573-18.364 40.937-40.937 40.937zm0-66.265c-13.966 0-25.328 11.362-25.328 25.328 0 13.965 11.362 25.327 25.328 25.327 13.965 0 25.327-11.362 25.327-25.327 0-13.966-11.361-25.328-25.327-25.328z"/><path d="m72.199 249.047c-9.547 0-19.092-.474-28.571-1.422-12.892-1.29-22.798-11.611-23.553-24.542-1.802-30.883-1.802-62.201 0-93.084.755-12.931 10.661-23.253 23.553-24.542 18.956-1.896 38.183-1.896 57.141 0 12.892 1.29 22.798 11.611 23.553 24.542 1.802 30.883 1.802 62.201 0 93.084-.755 12.931-10.661 23.253-23.553 24.542-9.478.948-19.024 1.422-28.57 1.422zm-.001-129.403c-9.026 0-18.053.448-27.017 1.345-5.212.521-9.217 4.693-9.522 9.919-1.766 30.279-1.766 60.985 0 91.265.305 5.226 4.31 9.398 9.522 9.919 17.929 1.794 36.107 1.793 54.036 0 5.212-.521 9.217-4.693 9.522-9.919 1.766-30.279 1.766-60.985 0-91.265-.305-5.226-4.31-9.398-9.522-9.919-8.965-.897-17.991-1.345-27.019-1.345z"/></g></g><g><path d="m243.477 239.859c-18.529 1.854-37.059 1.854-55.588 0-9.004-.901-16.011-8.198-16.538-17.231-1.793-30.725-1.793-61.45 0-92.174.527-9.033 7.534-16.33 16.538-17.231 18.529-1.854 37.059-1.854 55.588 0 9.004.901 16.011 8.198 16.538 17.231 1.793 30.725 1.793 61.45 0 92.174-.528 9.033-7.535 16.33-16.538 17.231z" fill="#f7f9f9"/><path d="m215.683 249.047c-9.547 0-19.092-.474-28.571-1.422-12.892-1.29-22.798-11.611-23.553-24.542-1.802-30.883-1.802-62.201 0-93.084.755-12.931 10.661-23.253 23.553-24.542 18.957-1.896 38.184-1.896 57.141 0 12.894 1.29 22.799 11.611 23.553 24.543 1.802 30.883 1.802 62.2 0 93.083-.754 12.931-10.659 23.253-23.553 24.542-9.479.948-19.024 1.422-28.57 1.422zm-.001-129.403c-9.026 0-18.053.448-27.017 1.345-5.212.521-9.217 4.693-9.522 9.919-1.766 30.279-1.766 60.985 0 91.265.305 5.226 4.31 9.398 9.522 9.919 17.93 1.794 36.108 1.793 54.036 0 5.213-.521 9.217-4.693 9.522-9.919 1.766-30.28 1.766-60.986 0-91.265-.305-5.227-4.309-9.398-9.522-9.919-8.965-.897-17.992-1.345-27.019-1.345z" fill="#df73c1"/><path d="m215.681 203.985c-8.744 0-17.489-.273-26.172-.819-4.302-.271-7.57-3.977-7.3-8.279.271-4.302 3.979-7.559 8.279-7.3 16.715 1.051 33.669 1.051 50.384 0 4.317-.259 8.009 2.998 8.279 7.3s-2.998 8.009-7.3 8.279c-8.681.546-17.426.819-26.17.819z" fill="#dae4ea"/><path d="m241.37 165.505c-.165 0-.33-.006-.497-.016-16.715-1.051-33.669-1.051-50.384 0-4.302.263-8.008-2.998-8.279-7.3-.27-4.302 2.998-8.009 7.3-8.279 17.366-1.091 34.978-1.091 52.344 0 4.302.271 7.57 3.977 7.3 8.279-.262 4.136-3.697 7.316-7.784 7.316z" fill="#dae4ea"/><circle cx="215.683" cy="373.774" fill="#454545" r="33.133"/><path d="m215.683 414.711c-22.573 0-40.938-18.364-40.938-40.937s18.365-40.938 40.938-40.938 40.937 18.364 40.937 40.938c0 22.573-18.364 40.937-40.937 40.937zm0-66.265c-13.966 0-25.328 11.362-25.328 25.328 0 13.965 11.362 25.327 25.328 25.327 13.965 0 25.327-11.362 25.327-25.327 0-13.966-11.362-25.328-25.327-25.328z" fill="#df73c1"/></g></g></svg>