<?xml version="1.0" encoding="iso-8859-1"?>
<!-- Generator: Adobe Illustrator 19.0.0, SVG Export Plug-In . SVG Version: 6.00 Build 0)  -->
<svg version="1.1" id="Layer_1" xmlns="http://www.w3.org/2000/svg" xmlns:xlink="http://www.w3.org/1999/xlink" x="0px" y="0px"
	 viewBox="0 0 491.493 491.493" style="enable-background:new 0 0 491.493 491.493;" xml:space="preserve">
<rect y="40.256" style="fill:#2D93BA;" width="124.058" height="419.727"/>
<rect y="31.511" style="fill:#27A2DB;" width="124.058" height="419.727"/>
<rect x="22.036" y="67.618" style="fill:#FFFFFF;" width="80.005" height="128.922"/>
<g>
	<rect x="34.637" y="82.778" style="fill:#EBF0F3;" width="54.804" height="8.571"/>
	<rect x="34.637" y="105.291" style="fill:#EBF0F3;" width="54.804" height="8.571"/>
	<rect x="34.637" y="127.793" style="fill:#EBF0F3;" width="54.804" height="8.571"/>
	<rect x="34.637" y="150.295" style="fill:#EBF0F3;" width="54.804" height="8.571"/>
	<rect x="34.637" y="172.798" style="fill:#EBF0F3;" width="54.804" height="8.571"/>
	<circle style="fill:#EBF0F3;" cx="62.054" cy="390.387" r="29.85"/>
</g>
<circle style="fill:#64798A;" cx="62.054" cy="390.387" r="24.576"/>
<rect x="142.464" y="40.256" style="fill:#D15241;" width="124.058" height="419.727"/>
<rect x="142.464" y="31.511" style="fill:#E56353;" width="124.058" height="419.727"/>
<rect x="164.506" y="67.618" style="fill:#FFFFFF;" width="80.005" height="128.922"/>
<g>
	<rect x="177.106" y="82.778" style="fill:#EBF0F3;" width="54.804" height="8.571"/>
	<rect x="177.106" y="105.291" style="fill:#EBF0F3;" width="54.804" height="8.571"/>
	<rect x="177.106" y="127.793" style="fill:#EBF0F3;" width="54.804" height="8.571"/>
	<rect x="177.106" y="150.295" style="fill:#EBF0F3;" width="54.804" height="8.571"/>
	<rect x="177.106" y="172.798" style="fill:#EBF0F3;" width="54.804" height="8.571"/>
	<circle style="fill:#EBF0F3;" cx="204.508" cy="390.387" r="29.85"/>
</g>
<circle style="fill:#64798A;" cx="204.508" cy="390.387" r="24.576"/>
<rect x="317.749" y="40.129" transform="matrix(-0.9693 0.2458 -0.2458 -0.9693 809.3568 398.9589)" style="fill:#3EA69B;" width="124.058" height="419.729"/>
<rect x="315.597" y="31.635" transform="matrix(-0.9693 0.2458 -0.2458 -0.9693 803.0308 382.7534)" style="fill:#44C4A1;" width="124.057" height="419.726"/>
<rect x="310.782" y="71.104" transform="matrix(-0.9693 0.2458 -0.2458 -0.9693 724.1257 180.7425)" style="fill:#FFFFFF;" width="80" height="128.922"/>
<g>
	
		<rect x="312.312" y="87.641" transform="matrix(-0.9693 0.2458 -0.2458 -0.9693 691.6009 97.5195)" style="fill:#EBF0F3;" width="54.804" height="8.571"/>
	
		<rect x="317.85" y="109.464" transform="matrix(-0.9693 0.2458 -0.2458 -0.9693 707.8734 139.1354)" style="fill:#EBF0F3;" width="54.804" height="8.571"/>
	
		<rect x="323.382" y="131.279" transform="matrix(-0.9693 0.2458 -0.2458 -0.9693 724.1304 180.7406)" style="fill:#EBF0F3;" width="54.805" height="8.571"/>
	
		<rect x="328.912" y="153.09" transform="matrix(-0.9693 0.2458 -0.2458 -0.9693 740.3818 222.3326)" style="fill:#EBF0F3;" width="54.805" height="8.571"/>
	
		<rect x="334.438" y="174.89" transform="matrix(-0.9693 0.2458 -0.2458 -0.9693 756.6235 263.9062)" style="fill:#EBF0F3;" width="54.805" height="8.571"/>
	<ellipse style="fill:#EBF0F3;" cx="414.286" cy="385.985" rx="29.85" ry="29.85"/>
</g>
<ellipse style="fill:#64798A;" cx="414.286" cy="385.983" rx="24.576" ry="24.576"/>
<g>
</g>
<g>
</g>
<g>
</g>
<g>
</g>
<g>
</g>
<g>
</g>
<g>
</g>
<g>
</g>
<g>
</g>
<g>
</g>
<g>
</g>
<g>
</g>
<g>
</g>
<g>
</g>
<g>
</g>
</svg>
