<?xml version="1.0" encoding="iso-8859-1"?>
<!-- Generator: Adobe Illustrator 19.0.0, SVG Export Plug-In . SVG Version: 6.00 Build 0)  -->
<svg version="1.1" id="Layer_1" xmlns="http://www.w3.org/2000/svg" xmlns:xlink="http://www.w3.org/1999/xlink" x="0px" y="0px"
	 viewBox="0 0 511.998 511.998" style="enable-background:new 0 0 511.998 511.998;" xml:space="preserve">
<rect y="83.242" style="fill:#FF6F52;" width="162.513" height="369.082"/>
<rect x="141.595" y="83.242" style="fill:#FCD577;" width="141.595" height="369.082"/>
<rect x="38.163" y="134.137" style="fill:#CFDCE5;" width="65.27" height="143.827"/>
<path style="fill:#BAC6CC;" d="M109.34,283.862H32.256V128.229h77.085V283.862z M44.067,272.051h53.462v-132.01H44.067V272.051z"/>
<g>
	<path style="fill:#415E72;" d="M78.542,181.566H63.054c-3.588,0-6.496-2.908-6.496-6.496c0-3.588,2.908-6.496,6.496-6.496h15.488
		c3.588,0,6.496,2.908,6.496,6.496C85.038,178.658,82.13,181.566,78.542,181.566z"/>
	<path style="fill:#415E72;" d="M78.542,207.011H63.054c-3.588,0-6.496-2.908-6.496-6.496s2.908-6.496,6.496-6.496h15.488
		c3.588,0,6.496,2.908,6.496,6.496S82.13,207.011,78.542,207.011z"/>
</g>
<rect x="179.757" y="134.137" style="fill:#CFDCE5;" width="65.27" height="143.827"/>
<path style="fill:#BAC6CC;" d="M250.936,283.862h-77.085V128.229h77.085V283.862z M185.663,272.051h53.462v-132.01h-53.462V272.051z
	"/>
<g>
	<path style="fill:#415E72;" d="M220.138,181.566H204.65c-3.588,0-6.496-2.908-6.496-6.496c0-3.588,2.908-6.496,6.496-6.496h15.488
		c3.588,0,6.496,2.908,6.496,6.496C226.635,178.658,223.727,181.566,220.138,181.566z"/>
	<path style="fill:#415E72;" d="M220.138,207.011H204.65c-3.588,0-6.496-2.908-6.496-6.496s2.908-6.496,6.496-6.496h15.488
		c3.588,0,6.496,2.908,6.496,6.496S223.727,207.011,220.138,207.011z"/>
	<circle style="fill:#415E72;" cx="70.799" cy="369.786" r="32.636"/>
</g>
<rect x="326.797" y="71.455" transform="matrix(-0.9687 0.2483 -0.2483 -0.9687 846.3031 405.2602)" style="fill:#4EBFED;" width="141.597" height="369.088"/>
<rect x="349.633" y="124.275" transform="matrix(-0.9687 0.2483 -0.2483 -0.9687 801.2788 291.3197)" style="fill:#CFDCE5;" width="65.271" height="143.83"/>
<path style="fill:#BAC6CC;" d="M364.254,281.129l-38.646-150.758l74.669-19.142l38.647,150.759L364.254,281.129z M339.982,138.879
	l32.779,127.875l51.788-13.275l-32.78-127.876L339.982,138.879z"/>
<g>
	<path style="fill:#415E72;" d="M367.067,174.594c-2.896,0-5.537-1.95-6.288-4.885c-0.891-3.476,1.206-7.015,4.681-7.905
		l15.004-3.846c3.475-0.894,7.015,1.204,7.905,4.68c0.891,3.476-1.206,7.015-4.681,7.905l-15.004,3.846
		C368.143,174.527,367.601,174.594,367.067,174.594z"/>
	<path style="fill:#415E72;" d="M373.385,199.242c-2.896,0-5.536-1.95-6.288-4.885c-0.891-3.475,1.205-7.015,4.68-7.905
		l15.004-3.846c3.474-0.893,7.014,1.205,7.907,4.68c0.891,3.475-1.205,7.015-4.68,7.905l-15.004,3.846
		C374.463,199.175,373.92,199.242,373.385,199.242z"/>
	<circle style="fill:#415E72;" cx="422.918" cy="354.786" r="32.636"/>
	<circle style="fill:#415E72;" cx="212.392" cy="369.786" r="32.636"/>
</g>
<g>
</g>
<g>
</g>
<g>
</g>
<g>
</g>
<g>
</g>
<g>
</g>
<g>
</g>
<g>
</g>
<g>
</g>
<g>
</g>
<g>
</g>
<g>
</g>
<g>
</g>
<g>
</g>
<g>
</g>
</svg>
